<?xml version="1.0" encoding="UTF-8"?><svg id="Layer_2" xmlns="http://www.w3.org/2000/svg" width="604.43312" height="604.43312" viewBox="0 0 604.43312 604.43312"><defs><style>.cls-1{fill:#ff922f;}.cls-2{fill:#fff;}</style></defs><g id="Layer_2-2"><rect class="cls-1" width="604.43312" height="604.43312"/></g><g id="Layer_4"><rect class="cls-2" x="273.85987" y="488.02548" width="56.71338" height="116.40764"/><polygon class="cls-2" points="241.07006 475.45223 361.91083 475.45223 399.70701 340.47134 399.70701 210.49682 204.72611 210.49682 204.72611 340.47134 241.07006 475.45223"/><path class="cls-2" d="M227.08332,90.49682v106.24204h150.26752v-106.24204s-150.72611,0-150.26752,0Z"/><polygon class="cls-2" points="377.35084 80.71338 227.08228 80.94268 227.08228 67.18471 377.35084 66.95541 377.35084 80.71338"/></g><g id="Layer_5"><rect class="cls-1" x="197.19745" y="340.61783" width="205.29936" height="18.00637"/><rect class="cls-1" x="197.19745" y="385.86624" width="205.29936" height="18.00637"/><rect class="cls-1" x="197.19745" y="431.42038" width="205.29936" height="18.00637"/><path class="cls-1" d="M251.82803,272.75159h100.77707v12.03185c0,13.79788-11.20212,25-25,25h-50.77707c-13.79788,0-25-11.20212-25-25v-12.03185h0Z"/><rect class="cls-1" x="244.82803" y="89.19745" width="12.99363" height="52.35669"/><rect class="cls-1" x="270.3949" y="89.19745" width="12.99363" height="52.35669"/><rect class="cls-1" x="295.96178" y="89.19745" width="12.99363" height="52.35669"/><rect class="cls-1" x="321.52866" y="89.19745" width="12.99363" height="52.35669"/><rect class="cls-1" x="347.09554" y="89.19745" width="12.99363" height="52.35669"/></g><g id="Layer_6"><rect class="cls-2" x="255.89809" y="336.61146" width="92.63694" height="31.18471"/><rect class="cls-2" x="265.87261" y="382.70064" width="72.6879" height="26.14013"/><rect class="cls-2" x="277.56688" y="426.72611" width="49.29936" height="24.07643"/></g></svg>