<?xml version="1.0" encoding="UTF-8"?><svg id="Layer_2" xmlns="http://www.w3.org/2000/svg" width="610.8535" height="616.74522" viewBox="0 0 610.8535 616.74522"><defs><style>.cls-1{fill:#ff922f;}.cls-2{fill:#fff;}</style></defs><g id="Layer_2-2"><circle class="cls-1" cx="305.42675" cy="305.42675" r="305.42675"/></g><g id="Layer_4"><rect class="cls-2" x="277.07006" y="496.43949" width="56.71338" height="120.30573"/><polygon class="cls-2" points="244.28025 483.86624 365.12102 483.86624 402.9172 348.88535 402.9172 218.91083 207.93631 218.91083 207.93631 348.88535 244.28025 483.86624"/><path class="cls-2" d="M230.29352,98.91083v106.24204h150.26752v-106.24204s-150.72611,0-150.26752,0Z"/><polygon class="cls-2" points="380.56103 89.12739 230.29247 89.35669 230.29247 75.59873 380.56103 75.36943 380.56103 89.12739"/></g><g id="Layer_5"><rect class="cls-1" x="200.40764" y="349.03185" width="205.29936" height="18.00637"/><rect class="cls-1" x="200.40764" y="394.28025" width="205.29936" height="18.00637"/><rect class="cls-1" x="200.40764" y="439.83439" width="205.29936" height="18.00637"/><path class="cls-1" d="M255.03822,281.16561h100.77707v12.03185c0,13.79788-11.20212,25-25,25h-50.77707c-13.79788,0-25-11.20212-25-25v-12.03185h0Z"/><rect class="cls-1" x="248.03822" y="97.61146" width="12.99363" height="52.35669"/><rect class="cls-1" x="273.6051" y="97.61146" width="12.99363" height="52.35669"/><rect class="cls-1" x="299.17197" y="97.61146" width="12.99363" height="52.35669"/><rect class="cls-1" x="324.73885" y="97.61146" width="12.99363" height="52.35669"/><rect class="cls-1" x="350.30573" y="97.61146" width="12.99363" height="52.35669"/></g><g id="Layer_6"><rect class="cls-2" x="259.10828" y="345.02548" width="92.63694" height="31.18471"/><rect class="cls-2" x="269.0828" y="391.11465" width="72.6879" height="26.14013"/><rect class="cls-2" x="280.77707" y="435.14013" width="49.29936" height="24.07643"/></g></svg>